<?xml version="1.0" standalone="no"?>
<!DOCTYPE svg PUBLIC "-//W3C//DTD SVG 20010904//EN"
 "http://www.w3.org/TR/2001/REC-SVG-20010904/DTD/svg10.dtd">
<svg version="1.0" xmlns="http://www.w3.org/2000/svg"
 width="16.000000pt" height="16.000000pt" viewBox="0 0 16.000000 16.000000"
 preserveAspectRatio="xMidYMid meet">

<g transform="translate(0.000000,16.000000) scale(0.100000,-0.100000)"
fill="#000000" stroke="none">
<path d="M55 150 c-77 -30 -57 -143 25 -143 41 0 73 32 73 73 0 50 -53 88 -98
70z m50 -10 c14 -5 29 -20 35 -34 10 -29 2 -68 -14 -63 -6 2 -19 0 -29 -5 -13
-7 -26 -5 -44 7 -14 10 -22 12 -19 6 4 -6 3 -11 -2 -11 -5 0 -12 9 -15 20 -6
25 2 60 15 60 5 0 4 -9 -2 -21 -18 -33 -7 -31 12 2 10 17 13 27 8 24 -6 -3
-10 -2 -10 4 0 5 8 12 18 14 9 3 18 5 19 6 1 0 13 -3 28 -9z m-5 -110 c11 6
20 7 20 2 0 -13 -35 -21 -60 -15 -11 3 -20 9 -20 15 0 5 9 4 20 -2 14 -8 26
-8 40 0z"/>
<path d="M91 127 c2 -1 13 -9 24 -17 19 -14 19 -14 6 3 -7 9 -18 17 -24 17 -6
0 -8 -1 -6 -3z"/>
</g>
</svg>
